<?xml version="1.0" encoding="UTF-8"?>
<svg id="Layer_1" data-name="Air Fryer Probe Icon Reverse" xmlns="http://www.w3.org/2000/svg" viewBox="460 390 560 125">
  <defs>
    <style>
      .cls-2, .cls-4 { stroke-width: 0px; }
      .cls-2 { fill: #ffffff; }
      .cls-4 { fill: #fef0d6; }
    </style>
  </defs>
  <g>
    <path class="cls-4" d="M629.52,480.68c5.68,0,8.93,2.8,8.93,7.71s-3.26,8.06-8.93,8.06h-5.19v6.8h-3.81v-22.58h9ZM624.33,493.03h5.03c3.48,0,5.45-1.48,5.45-4.55s-1.97-4.39-5.45-4.39h-5.03v8.93Z"/>
    <path class="cls-4" d="M693.07,496.42c-.32.03-.68.03-1.03.03h-5.35v6.8h-3.81v-22.58h9.16c5.77,0,9.09,2.8,9.09,7.71,0,3.61-1.68,6.16-4.68,7.32l5.06,7.55h-4.32l-4.13-6.84ZM692.04,493.03c3.48,0,5.48-1.48,5.48-4.55s-2-4.39-5.48-4.39h-5.35v8.93h5.35Z"/>
    <path class="cls-4" d="M768.9,491.97c0,6.45-5.22,11.45-11.97,11.45s-11.97-5-11.97-11.45,5.22-11.38,11.97-11.38,11.97,4.93,11.97,11.38M748.84,491.97c0,4.48,3.71,8.03,8.13,8.03s8.03-3.55,8.03-8.03-3.61-7.97-8.03-7.97-8.13,3.48-8.13,7.97"/>
    <path class="cls-4" d="M823.41,480.68c4.68,0,7.58,2.13,7.58,5.64,0,2.55-1.52,4.45-3.97,5.03,3.03.52,4.84,2.68,4.84,5.71,0,3.87-3.13,6.19-8.22,6.19h-10.03v-22.57h9.8ZM817.41,490.03h5.8c2.42,0,3.87-1.13,3.87-3.03s-1.45-2.93-3.87-2.93h-5.8v5.97ZM817.41,499.87h5.8c2.97,0,4.74-1.16,4.74-3.29,0-2-1.77-3.19-4.74-3.19h-5.8v6.48Z"/>
    <polygon class="cls-4" points="880.82 484.1 880.82 490.2 891.85 490.2 891.85 493.61 880.82 493.61 880.82 499.84 893.53 499.84 893.53 503.26 877.02 503.26 877.02 480.68 893.14 480.68 893.14 484.1 880.82 484.1"/>
    <path class="cls-2" d="M531.93,456.3h-28.98l-2.98,8.94h-23.02l24.88-67.62h31.24l24.88,67.62h-23.03l-2.98-8.94ZM526.45,439.8l-7.08-21.25h-3.86l-7.08,21.25h18.03Z"/>
    <rect class="cls-2" x="561.15" y="397.61" width="22.3" height="67.63"/>
    <path class="cls-2" d="M637.47,465.24l-9.18-17.47h-16.91v17.47h-22.3v-67.62h38.72c18.76,0,29.3,8.05,29.3,25.84,0,9.1-4.11,15.54-9.82,19.56l12.08,22.22h-21.9ZM611.39,431.1h14.89c5.64,0,8.53-2.74,8.53-7.49s-2.9-7.49-8.53-7.49h-14.89v14.97Z"/>
    <path class="cls-2" d="M812.29,443.01c5.71-4.01,9.82-10.45,9.82-19.57,0-17.79-10.55-25.83-29.31-25.83h-44.12v25.02h20.15c.36-.87,1.18-1.52,2.15-1.6v-3.08c0-1.01.82-1.83,1.83-1.83h21.03c5.65,0,8.54,2.74,8.54,7.48s-2.9,7.49-8.54,7.49h-21.03c-1.01,0-1.83-.82-1.83-1.83v-3.08c-.99-.1-1.81-.73-2.15-1.62h-20.15v40.65h22.3v-17.46h19.37l9.18,17.46h24.83l-12.07-22.22Z"/>
    <path class="cls-2" d="M1012.28,465.24l-9.18-17.47h-19.36v17.47h-22.3v-67.62h44.11c18.76,0,29.3,8.05,29.3,25.84,0,9.1-4.11,15.54-9.82,19.56l12.08,22.22h-24.83ZM983.74,431.1h22.85c5.64,0,8.53-2.74,8.53-7.49s-2.9-7.49-8.53-7.49h-22.85v14.97Z"/>
    <polygon class="cls-2" points="866.11 444.23 866.11 465.24 843.81 465.24 843.81 444.14 816.2 397.61 839.63 397.61 854.12 423.05 855.89 423.05 870.38 397.61 893.8 397.61 866.11 444.23"/>
    <polygon class="cls-2" points="896.62 397.61 957.57 397.61 957.57 415.48 918.93 415.48 918.93 424.1 956.12 424.1 956.12 438.75 918.93 438.75 918.93 447.37 957.57 447.37 957.57 465.24 896.62 465.24 896.62 397.61"/>
    <polygon class="cls-2" points="707.03 422.64 703.39 423.61 707.03 424.58 745.51 424.58 745.51 441.49 707.03 441.49 707.03 465.23 684.73 465.23 684.73 397.62 745.51 397.62 745.51 422.64 707.03 422.64"/>
    <path class="cls-4" d="M789.71,419.97v7.64c0,.44-.36.79-.79.79h-13.87c-.44,0-.79-.36-.79-.79v-7.64c0-.44.36-.79.79-.79h13.87c.44,0,.79.36.79.79"/>
    <path class="cls-4" d="M797.93,420.19c0,1.49-1.21,2.71-2.71,2.71s-2.71-1.21-2.71-2.71,1.21-2.7,2.71-2.7,2.71,1.21,2.71,2.7"/>
    <path class="cls-4" d="M797.93,427.38c0,1.49-1.21,2.71-2.71,2.71s-2.71-1.21-2.71-2.71,1.21-2.7,2.71-2.7,2.71,1.21,2.71,2.7"/>
    <rect class="cls-4" x="476.94" y="489.78" width="124.64" height="4.44"/>
    <rect class="cls-4" x="912.48" y="489.78" width="124.64" height="4.44"/>
  </g>
</svg>
